<svg width="60" height="59" viewBox="0 0 60 59" fill="none" xmlns="http://www.w3.org/2000/svg">
<path d="M29.6399 0C13.191 0.0795161 -0.0790581 13.5102 0.000385364 29.9981C0.0618788 42.7587 8.20773 54.0694 20.2716 58.1448C21.7539 58.4197 22.2912 57.4985 22.2912 56.7073C22.2912 55.9978 22.269 54.107 22.2505 51.6331C14.005 53.4347 12.2633 47.6324 12.2633 47.6324C11.7223 45.831 10.5564 44.2829 8.97622 43.2678C6.28209 41.4105 9.18004 41.455 9.18004 41.455C11.0855 41.7234 12.7608 42.8585 13.7197 44.5307C15.3849 47.593 19.2113 48.7223 22.2663 47.0532C22.2933 47.0385 22.3201 47.0236 22.3468 47.0084C22.4798 45.4961 23.1474 44.0813 24.2294 43.0189C17.6478 42.2648 10.7402 39.7092 10.7402 28.2756C10.692 25.3155 11.7799 22.4499 13.779 20.2706C12.8761 17.6955 12.9821 14.873 14.0754 12.3733C14.0754 12.3733 16.5657 11.5709 22.2282 15.4304C27.0881 14.093 32.2176 14.093 37.0774 15.4304C42.7362 11.5709 45.2302 12.3733 45.2302 12.3733C46.3236 14.873 46.4295 17.6955 45.5267 20.2706C47.5171 22.4535 48.5955 25.3188 48.5395 28.2756C48.5395 39.7352 41.6097 42.2574 35.0059 42.9966C36.4381 44.4635 37.1712 46.4772 37.0181 48.524C37.0181 52.5097 36.9811 55.7266 36.9811 56.6961C36.9811 57.4948 37.5147 58.4234 39.0193 58.13C54.5988 52.8401 62.9504 35.8922 57.673 20.2755C53.598 8.21662 42.3416 0.075221 29.6399 0Z" fill="#5C6BC0"/>
<path d="M1.15682 33.9825C0.954246 33.9825 0.749352 33.9293 0.563221 33.8173C0.0146746 33.4874 -0.164158 32.776 0.165017 32.2261L0.167099 32.2228C0.496157 31.6729 1.20778 31.4947 1.75622 31.8245C2.30476 32.1544 2.48256 32.8676 2.1535 33.4174C1.93598 33.7806 1.55109 33.9825 1.15682 33.9825Z" fill="black"/>
<path d="M26.6667 5.40094C26.7857 5.56528 26.8631 5.76274 26.8819 5.97954C26.9378 6.61829 26.4683 7.18122 25.831 7.23711L25.8271 7.23739C25.1899 7.29337 24.628 6.8207 24.5722 6.18205C24.5164 5.54331 24.9878 4.98019 25.6251 4.92422C26.0461 4.8874 26.4351 5.08107 26.6667 5.40094Z" fill="black"/>
<path d="M40.2857 7.68146C40.5219 8.00771 40.5817 8.44808 40.4045 8.84178C40.1413 9.42621 39.4555 9.68624 38.8724 9.42257C36.0377 8.14058 32.9871 7.39076 29.8053 7.19404C29.1668 7.15455 28.6813 6.60359 28.7206 5.96373C28.76 5.32371 29.3095 4.83695 29.948 4.87644C33.4108 5.09062 36.7339 5.90804 39.8251 7.30598C40.0154 7.39208 40.1713 7.5234 40.2857 7.68146Z" fill="black"/>
<path fill-rule="evenodd" clip-rule="evenodd" d="M45.5271 20.4595C46.4299 17.8845 46.324 15.062 45.2306 12.5622L46.1494 9.7064L47.4182 10.1146C42.6469 5.79536 36.3678 3.23289 29.6386 3.18901C15.9221 3.26343 4.65774 13.6682 3.16769 27.0231L2.38949 26.9254C2.30386 27.6105 1.68088 28.0944 1.00013 28.0089C0.621777 27.9614 0.304008 27.7479 0.111053 27.4499C1.41632 12.238 14.1118 0.264032 29.6403 0.188965C42.342 0.264186 53.5984 8.40558 57.6734 20.4645C62.9508 36.0811 54.5992 53.0291 39.0197 58.3189C37.5151 58.6124 36.9815 57.6837 36.9815 56.8851C36.9815 56.5652 36.9855 56.0005 36.9909 55.2443L36.9909 55.2421V55.2419V55.2414L36.991 55.2406C37.0019 53.7051 37.0185 51.3813 37.0185 48.7129C37.0881 47.7826 36.9746 46.8592 36.6956 45.9908C36.3608 44.9486 35.7875 43.9857 35.0063 43.1856C36.133 43.0594 37.2692 42.8814 38.3788 42.616C43.773 41.3255 48.5399 37.969 48.5399 28.4645C48.5959 25.5078 47.5175 22.6424 45.5271 20.4595ZM14.0758 12.5622L13.1558 9.7068L11.869 10.1214L11.3272 11.3601C10.1641 14.0193 9.87542 16.9639 10.4767 19.7742C8.66297 22.2974 7.69495 25.3504 7.7406 28.4882C7.74385 32.7515 8.62517 36.1462 10.2251 38.7836C10.0185 38.7398 9.80962 38.703 9.59885 38.6733L9.41362 38.6472L9.22658 38.6444L9.18044 41.644C9.22658 38.6444 9.22565 38.6443 9.22471 38.6443L9.22276 38.6443L9.21863 38.6442L9.20947 38.6441L9.18758 38.644C9.17144 38.6439 9.15216 38.6439 9.13004 38.644C9.08595 38.6443 9.02962 38.6451 8.96356 38.6473C8.83414 38.6515 8.65398 38.6611 8.44701 38.6835C8.15295 38.7153 7.34616 38.8123 6.58253 39.2476C6.19693 39.4674 5.58975 39.9054 5.19269 40.6866C4.74341 39.6439 4.35877 38.5694 4.0429 37.4688L3.36436 37.6735C3.16589 37.0124 2.47114 36.6394 1.81399 36.8376C1.40351 36.9615 1.10354 37.2793 0.984539 37.6615C3.49645 47.2037 10.6338 55.0778 20.272 58.3338C21.7543 58.6087 22.2916 57.6874 22.2916 56.8962C22.2916 56.5222 22.2854 55.82 22.2769 54.8771L22.2752 54.6935C22.2679 53.8826 22.259 52.9086 22.2509 51.8221C21.1369 52.0654 20.1417 52.1701 19.2534 52.1689C13.8896 52.1622 12.4258 48.3004 12.2769 47.8618C12.2679 47.8354 12.2637 47.8214 12.2637 47.8214C12.072 47.183 11.8018 46.5765 11.4625 46.0142L11.432 45.9639C11.0255 45.3015 10.5225 44.7015 9.93872 44.1848C9.69038 43.9649 9.42741 43.7602 9.15099 43.5721C9.09345 43.5329 9.03532 43.4944 8.97662 43.4567L8.92971 43.4242C6.31645 41.5999 9.18044 41.644 9.18044 41.644C9.46802 41.6845 9.75035 41.7447 10.0258 41.8236C10.0471 41.8297 10.0684 41.8359 10.0896 41.8423C10.3423 41.9175 10.589 42.0085 10.8285 42.1143C12.0313 42.646 13.0504 43.5518 13.7201 44.7197C14.0416 45.311 14.4437 45.8302 14.9053 46.2711C16.8342 48.1137 19.8016 48.589 22.2667 47.2422C22.2937 47.2274 22.3205 47.2126 22.3472 47.1974C22.3827 46.7941 22.4561 46.3978 22.5653 46.0132C22.8657 44.9556 23.4363 43.9869 24.2298 43.2079C23.1008 43.0785 21.9623 42.8961 20.8507 42.6251C15.4817 41.3158 10.7406 37.9369 10.7406 28.4645C10.6924 25.5044 11.7803 22.6388 13.7794 20.4595C12.8765 17.8845 12.9825 15.062 14.0758 12.5622ZM3.30682 36.0923C3.47691 36.1921 3.63411 36.3142 3.77357 36.4561C3.72818 36.2709 3.68472 36.0851 3.6432 35.8987C3.53439 35.9682 3.42216 36.0329 3.30682 36.0923ZM14.0758 12.5622C14.0758 12.5622 16.5661 11.7599 22.2286 15.6194C27.0885 14.282 32.218 14.282 37.0778 15.6194C42.7366 11.7599 45.2306 12.5622 45.2306 12.5622C46.1494 9.7064 46.1465 9.70547 46.1436 9.70454L46.1378 9.70268L46.1259 9.69893L46.1013 9.69135C46.0845 9.68626 46.0671 9.68111 46.049 9.67592C46.0127 9.66554 45.9737 9.65501 45.932 9.64453C45.8484 9.62355 45.7541 9.60277 45.6488 9.58365C45.438 9.54534 45.1856 9.51402 44.8913 9.50039C44.3005 9.47305 43.5564 9.51765 42.6547 9.7086C41.0867 10.0407 39.0639 10.8101 36.5353 12.3904C32.0051 11.3583 27.3009 11.3583 22.7707 12.3905C20.2409 10.8102 18.2182 10.0407 16.6506 9.70864C15.7492 9.51768 15.0053 9.47303 14.4146 9.5004C14.1202 9.51403 13.8678 9.54539 13.6569 9.58376C13.5516 9.60292 13.4572 9.62373 13.3735 9.64476C13.3317 9.65527 13.2927 9.66582 13.2564 9.67623C13.2383 9.68143 13.2208 9.68659 13.204 9.6917L13.1794 9.6993L13.1675 9.70306L13.1616 9.70493C13.1587 9.70586 13.1558 9.7068 14.0758 12.5622ZM2.72396 28.3781C2.86167 28.2434 2.98252 28.0906 3.0825 27.923C3.06756 28.1148 3.05464 28.3073 3.04376 28.5002C2.93928 28.4553 2.83261 28.4145 2.72396 28.3781ZM10.2574 48.4243L10.2571 48.4239L11.4233 48.0738C10.9206 48.2248 10.5422 48.3385 10.2574 48.4243ZM47.9792 11.3601L47.4452 10.1391C50.752 13.1407 53.3318 16.9875 54.8313 21.4249L54.8313 21.425C59.3563 34.8152 52.7447 49.2858 39.9946 54.7359L40 53.9496C40.0091 52.547 40.0182 50.7765 40.0185 48.8153C40.0918 47.6487 39.9625 46.4911 39.6479 45.3898C41.9202 44.7855 44.2108 43.8009 46.1826 42.1393C49.5735 39.2821 51.5343 34.8564 51.5399 28.4919C51.5929 25.3576 50.6338 22.3053 48.8286 19.7797C49.4314 16.9678 49.1431 14.021 47.9792 11.3601ZM10.3208 40.712C10.3142 40.7054 10.3162 40.7067 10.325 40.716L10.3208 40.712Z" fill="black"/>
</svg>
