<svg width="60" height="60" viewBox="0 0 60 60" fill="none" xmlns="http://www.w3.org/2000/svg">
<path d="M57.415 27.3425C57.243 26.0469 56.0353 24.9862 54.731 24.9862H33.1436C31.8394 24.9862 30.7722 26.0559 30.7722 27.3634V32.4811C30.7722 33.7885 31.8393 34.8583 33.1436 34.8583H43.8028C45.0308 34.8583 45.8635 35.7 45.4561 36.7674C44.1218 39.7645 41.96 42.3087 39.2667 44.1201C36.5159 45.97 33.2132 47.0588 29.6515 47.0588C22.2796 47.0588 16.0023 42.4281 13.5127 35.917H13.5129C12.7764 33.9903 12.3558 31.9078 12.3558 29.7218C12.3558 27.5126 12.7838 25.4077 13.5358 23.4647L13.5356 23.4645C16.0416 16.9865 22.303 12.3852 29.651 12.3852C33.2411 12.3852 36.567 13.491 39.3276 15.3715L39.4094 15.4256C40.5133 16.1217 41.9678 16.0964 42.8584 15.1409L47.0717 10.6352C47.962 9.67981 47.7885 8.32623 46.6863 7.62723L46.6304 7.57603C41.9294 3.94856 36.0422 1.79053 29.651 1.79053C18.9789 1.79053 9.71237 7.807 5.03177 16.6379L5.03195 16.6381C2.96298 20.5418 1.78622 24.9932 1.78622 29.7218C1.78622 34.4721 2.97281 38.9434 5.05928 42.8598H5.0591C9.74952 51.6617 19.0007 57.6527 29.651 57.6527C36.5674 57.6527 42.8899 55.1214 47.7616 50.94H47.7617C53.7295 45.8166 57.5161 38.2148 57.5161 29.7216C57.5161 28.1056 57.415 27.3425 57.415 27.3425Z" fill="#FF5A5A"/>
<path d="M29.6515 48.849C25.715 48.849 21.9367 47.6546 18.7251 45.3947C15.5915 43.1899 13.2124 40.134 11.8449 36.5575C10.9986 34.3429 10.5696 32.0429 10.5696 29.7216C10.5696 27.3705 11.0072 25.0476 11.8705 22.817C13.2469 19.2585 15.6274 16.2192 18.7542 14.0282C21.9595 11.7821 25.7275 10.5947 29.651 10.5947C33.4688 10.5947 37.1579 11.7318 40.3209 13.8834L40.3734 13.9181C40.7396 14.1432 41.2728 14.2191 41.5529 13.9185L45.7683 9.41046C45.8444 9.32863 45.8557 9.27313 45.8542 9.26274C45.8528 9.25254 45.8282 9.20151 45.7312 9.1401C45.6428 9.08406 45.5595 9.02032 45.482 8.94959C40.9043 5.4369 35.432 3.58091 29.651 3.58091C19.9817 3.58091 11.1524 8.90591 6.60899 17.4779C4.62236 21.2267 3.57243 25.4608 3.57243 29.7217C3.57243 34.0045 4.63147 38.2558 6.63489 42.0163C6.97231 42.6496 7.34116 43.2778 7.73145 43.8837C8.2666 44.7145 8.02867 45.8228 7.19987 46.359C6.37089 46.8954 5.2654 46.6569 4.73025 45.8262C4.28691 45.1377 3.86733 44.4235 3.48365 43.7032C1.20462 39.4255 0 34.5909 0 29.7217C0 24.877 1.19462 20.0622 3.45436 15.7979C8.61902 6.05335 18.657 0 29.651 0C36.2519 0 42.4999 2.12921 47.7198 6.1572C47.741 6.17349 47.7619 6.1905 47.7823 6.20769C48.679 6.82969 49.2645 7.76807 49.3976 8.80671C49.5376 9.89889 49.1655 11.0108 48.3769 11.8571L44.1613 16.3653C42.7432 17.8872 40.3436 18.1305 38.4579 16.9409C38.4468 16.934 38.4359 16.927 38.4252 16.92L38.3434 16.8657C38.3366 16.8613 38.3298 16.8568 38.3232 16.8523C35.7525 15.1011 32.7534 14.1756 29.6506 14.1756C23.2076 14.1756 17.5356 18.0757 15.2007 24.1117C14.498 25.9281 14.1416 27.8156 14.1416 29.7217C14.1416 31.6037 14.4912 33.4726 15.1807 35.2765C17.4656 41.2528 23.281 45.2685 29.6511 45.2685C32.727 45.2685 35.7077 44.3573 38.2712 42.6334C40.5265 41.1166 42.3359 39.0572 43.5365 36.6488H33.143C30.8506 36.6488 28.9856 34.7794 28.9856 32.4814V27.3637C28.9856 25.0657 30.8506 23.1961 33.143 23.1961H37.297C38.2836 23.1961 39.0832 23.9977 39.0832 24.9865C39.0832 25.9754 38.2836 26.777 37.297 26.777H33.143C32.826 26.777 32.558 27.0457 32.558 27.3637V32.4814C32.558 32.7994 32.826 33.0679 33.143 33.0679H43.8022C45.0626 33.0679 46.1908 33.6156 46.8202 34.5327C47.3924 35.3662 47.5029 36.4141 47.1237 37.4078C47.1123 37.4381 47.0998 37.468 47.0866 37.4975C45.6233 40.7839 43.2632 43.5883 40.2613 45.6072C37.1075 47.728 33.4386 48.849 29.6515 48.849Z" fill="black"/>
<path d="M43.6729 26.7765C43.2032 26.7765 42.7423 26.5849 42.4101 26.2519C42.0778 25.9188 41.8867 25.4569 41.8867 24.986C41.8867 24.5151 42.0778 24.0532 42.4101 23.7202C42.7423 23.3871 43.2032 23.1956 43.6729 23.1956C44.1427 23.1956 44.6036 23.3871 44.9358 23.7202C45.268 24.0532 45.4591 24.5151 45.4591 24.986C45.4591 25.4569 45.268 25.9188 44.9358 26.2519C44.6036 26.5849 44.1427 26.7765 43.6729 26.7765Z" fill="black"/>
<path d="M29.651 59.4432C24.9436 59.4432 20.4422 58.3691 16.2714 56.2507C15.3915 55.8038 15.0396 54.7263 15.4855 53.8445C15.9315 52.9623 17.0062 52.6098 17.8861 53.0567C21.5518 54.9184 25.5101 55.8623 29.651 55.8623C35.8608 55.8623 41.88 53.6312 46.5999 49.58C52.4022 44.5991 55.7299 37.3608 55.7299 29.7217C55.7299 28.2791 55.6444 27.5783 55.6437 27.5715C55.591 27.174 55.1385 26.7767 54.7313 26.7767H51.1751C50.1886 26.7767 49.3889 25.9751 49.3889 24.9863C49.3889 23.9974 50.1886 23.1958 51.1751 23.1958H54.7313C56.938 23.1958 58.8946 24.9134 59.1857 27.1062C59.1979 27.1971 59.3024 28.0359 59.3024 29.7217C59.3024 38.4081 55.5195 46.6375 48.9237 52.2998C43.5567 56.9063 36.7123 59.4432 29.651 59.4432Z" fill="black"/>
<path d="M10.8666 52.1398C10.4362 52.1398 10.0044 51.9848 9.66166 51.6705C9.58289 51.5984 9.50447 51.5255 9.42623 51.4525C8.70478 50.778 8.66549 49.645 9.33835 48.922C10.0114 48.1989 11.1415 48.1595 11.863 48.8339C11.9326 48.8989 12.0025 48.9637 12.0727 49.0282C12.8006 49.6957 12.8509 50.8281 12.1852 51.5577C11.833 51.9439 11.3505 52.1398 10.8666 52.1398Z" fill="black"/>
</svg>
