<svg width="60" height="60" viewBox="0 0 60 60" fill="none" xmlns="http://www.w3.org/2000/svg">
<path d="M51.6579 58.2821H7.64446C4.06223 58.2821 1.15826 55.3712 1.15826 51.7805V7.66249C1.15826 4.07175 4.06223 1.16089 7.64446 1.16089H51.6579C55.2402 1.16089 58.1441 4.07175 58.1441 7.66249V51.7805C58.1441 55.3712 55.2402 58.2821 51.6579 58.2821Z" fill="#6E87F5"/>
<path d="M46.8982 25.1657C45.4815 23.5359 43.5197 22.7209 41.0131 22.7209C39.1588 22.7209 37.5867 23.09 36.2962 23.8278C35.0056 24.566 33.7298 25.7945 32.4692 27.5132V23.3048H24.0366V49.1391H32.407V34.4888C32.407 31.9229 34.318 29.8061 36.7554 29.672L37.0508 29.6557C39.2695 29.5337 41.1321 31.392 41.1321 33.7277V49.139H49.023V32.7189C49.0229 29.3132 48.3145 26.7956 46.8982 25.1657Z" fill="white"/>
<path d="M19.2125 23.3047H10.7798V49.1393H19.2125V23.3047Z" fill="white"/>
<path d="M14.997 19.761C17.6023 19.761 19.7142 17.644 19.7142 15.0326C19.7142 12.4212 17.6023 10.3042 14.997 10.3042C12.3918 10.3042 10.2798 12.4212 10.2798 15.0326C10.2798 17.644 12.3918 19.761 14.997 19.761Z" fill="white"/>
<path d="M51.6579 59.4432H7.64444C3.42923 59.4432 0 56.0058 0 51.7806V7.6626C0 3.43737 3.42923 0 7.64444 0H51.6579C55.8731 0 59.3023 3.43737 59.3023 7.6626V51.7806C59.3023 56.0058 55.8731 59.4432 51.6579 59.4432ZM7.64444 2.322C4.70666 2.322 2.3165 4.71784 2.3165 7.6626V51.7806C2.3165 54.7254 4.70666 57.1212 7.64444 57.1212H51.6579C54.5957 57.1212 56.9859 54.7254 56.9859 51.7806V7.6626C56.9859 4.71784 54.5957 2.322 51.6579 2.322H7.64444Z" fill="black"/>
<path d="M49.0229 50.3001H41.1319C40.4924 50.3001 39.9737 49.7804 39.9737 49.1391V33.7278C39.9737 32.8934 39.639 32.0973 39.0553 31.5436C38.5188 31.0345 37.8285 30.7766 37.1141 30.8152L36.8189 30.8314C34.9943 30.9318 33.5651 32.5383 33.5651 34.4889V49.1392C33.5651 49.7805 33.0464 50.3002 32.4069 50.3002H24.0364C23.3968 50.3002 22.8782 49.7805 22.8782 49.1392V23.3048C22.8782 22.6636 23.3968 22.1438 24.0364 22.1438H32.4691C33.1086 22.1438 33.6273 22.6636 33.6273 23.3048V24.412C34.3179 23.7546 35.0177 23.2223 35.7218 22.8194C37.1841 21.9836 38.9642 21.5598 41.013 21.5598C43.8577 21.5598 46.1314 22.5164 47.7714 24.4029C47.7714 24.4029 47.7714 24.403 47.7715 24.403C49.3703 26.2429 50.1811 29.0408 50.1811 32.7188V49.1389C50.1811 49.7804 49.6624 50.3001 49.0229 50.3001ZM42.2902 47.9781H47.8646V32.719C47.8646 29.618 47.2455 27.3332 46.0246 25.9282L46.0247 25.9283C44.8278 24.5512 43.1885 23.8818 41.013 23.8818C39.3716 23.8818 37.9777 24.2029 36.8698 24.8363C35.7269 25.49 34.5602 26.6221 33.4024 28.2007C33.1057 28.6051 32.5841 28.7726 32.108 28.6163C31.6325 28.4599 31.3108 28.0149 31.3108 27.5131V24.4657H25.1947V47.978H31.2486V34.4889C31.2486 31.3058 33.6396 28.6808 36.6918 28.5129L36.987 28.4967C38.3437 28.4214 39.6443 28.9052 40.6477 29.8572C41.6915 30.8477 42.2901 32.2584 42.2901 33.7278L42.2902 47.9781Z" fill="black"/>
<path d="M19.2129 50.2999H10.7803C10.1407 50.2999 9.62204 49.7801 9.62204 49.1389V42.8408C9.62204 42.1996 10.1407 41.6798 10.7803 41.6798C11.4199 41.6798 11.9385 42.1996 11.9385 42.8408V47.9779H18.0547V24.4656H11.9385V32.9723C11.9385 33.6135 11.4199 34.1333 10.7803 34.1333C10.1407 34.1333 9.62204 33.6135 9.62204 32.9723V23.3046C9.62204 22.6633 10.1407 22.1436 10.7803 22.1436H19.2129C19.8525 22.1436 20.3712 22.6633 20.3712 23.3046V49.1389C20.3712 49.7801 19.8525 50.2999 19.2129 50.2999Z" fill="black"/>
<path d="M10.7797 39.3579C10.4751 39.3579 10.1763 39.2337 9.96094 39.0177C9.74551 38.8018 9.62146 38.5022 9.62146 38.1969C9.62146 37.8915 9.74539 37.592 9.96094 37.3761C10.1763 37.1601 10.4751 37.0359 10.7797 37.0359C11.0856 37.0359 11.3833 37.1601 11.5997 37.3761C11.8152 37.592 11.9392 37.8915 11.9392 38.1969C11.9392 38.5022 11.8153 38.8018 11.5997 39.0177C11.3833 39.2337 11.0856 39.3579 10.7797 39.3579Z" fill="black"/>
<path d="M14.9967 20.9219C11.7569 20.9219 9.12122 18.2799 9.12122 15.0325C9.12122 11.785 11.7569 9.14307 14.9967 9.14307C18.2365 9.14307 20.8722 11.785 20.8722 15.0325C20.8722 18.2799 18.2364 20.9219 14.9967 20.9219ZM14.9967 11.4651C13.0344 11.4651 11.4377 13.0654 11.4377 15.0325C11.4377 16.9996 13.0342 18.5999 14.9967 18.5999C16.9591 18.5999 18.5557 16.9996 18.5557 15.0325C18.5557 13.0654 16.9591 11.4651 14.9967 11.4651Z" fill="black"/>
<path d="M45.0137 7.89475H35.574C34.9344 7.89475 34.4158 7.37497 34.4158 6.73375C34.4158 6.09253 34.9344 5.57275 35.574 5.57275H45.0137C45.6533 5.57275 46.172 6.09253 46.172 6.73375C46.172 7.37497 45.6533 7.89475 45.0137 7.89475Z" fill="black"/>
<path d="M30.3178 7.89475H30.304C29.6644 7.89475 29.1457 7.37497 29.1457 6.73375C29.1457 6.09253 29.6644 5.57275 30.304 5.57275H30.3178C30.9573 5.57275 31.476 6.09253 31.476 6.73375C31.476 7.37497 30.9573 7.89475 30.3178 7.89475Z" fill="black"/>
</svg>
