<svg width="59" height="49" viewBox="0 0 59 49" fill="none" xmlns="http://www.w3.org/2000/svg">
<path d="M57.1169 6.65012C55.0674 7.57834 52.8478 8.22084 50.5274 8.50203C52.9002 7.05171 54.7091 4.75375 55.5789 2.01391C53.3589 3.35707 50.9031 4.33428 48.2725 4.85638C46.1925 2.58953 43.2036 1.16162 39.9089 1.16162C33.5771 1.16162 28.4383 6.40922 28.4383 12.875C28.4383 13.7987 28.5432 14.6868 28.7311 15.5436C19.1875 15.0527 10.7409 10.3985 5.07329 3.30366C4.08144 5.03053 3.51763 7.05194 3.51763 9.19816C3.51763 13.259 5.54955 16.8509 8.62142 18.9393C6.74265 18.8903 4.98575 18.3503 3.43464 17.4756V17.6184C3.43464 23.2989 7.39365 28.0377 12.6329 29.122C11.6759 29.3809 10.6535 29.5191 9.61351 29.5191C8.87939 29.5191 8.16279 29.4522 7.44607 29.3138C8.9143 33.9679 13.1441 37.3459 18.165 37.453C14.2366 40.5898 9.28573 42.4551 3.9109 42.4551C2.98885 42.4551 2.08453 42.4017 1.17999 42.299C6.26627 45.6277 12.2922 47.56 18.7768 47.56C39.874 47.56 51.4144 29.711 51.4144 14.2361L51.3795 12.7189C53.6342 11.0632 55.5789 9.00625 57.1169 6.65012Z" fill="#78D2FA"/>
<path d="M18.7768 48.7208C12.3059 48.7208 6.00888 46.8381 0.566516 43.2763C0.121749 42.9852 -0.0681183 42.4197 0.108333 41.9112C0.284671 41.4028 0.781168 41.0854 1.30575 41.1449C2.18835 41.2451 3.04047 41.2939 3.91102 41.2939C7.92211 41.2939 11.7481 40.2232 15.1233 38.175C11.0435 37.0568 7.69813 33.8985 6.36417 29.6698C6.24116 29.2799 6.32847 28.8528 6.59383 28.5456C6.85931 28.2385 7.2636 28.0971 7.65754 28.1729C7.66437 28.1743 7.67119 28.1756 7.67801 28.1768C4.39717 25.8155 2.29806 21.9135 2.29806 17.6181V17.4753C2.29806 17.0645 2.51067 16.6843 2.85709 16.4755C3.20362 16.2667 3.63236 16.2605 3.98458 16.459C4.28416 16.6279 4.58772 16.7808 4.89446 16.9177C3.28275 14.7237 2.38094 12.0283 2.38094 9.19777C2.38094 6.90712 2.97294 4.6657 4.09293 2.71581C4.28132 2.38782 4.61501 2.1749 4.98621 2.14564C5.35708 2.11696 5.71919 2.27474 5.95454 2.5694C7.93461 5.04813 10.2539 7.20666 12.8483 8.98496C13.3696 9.34232 13.5086 10.0636 13.1586 10.596C12.8086 11.1283 12.1024 11.2703 11.581 10.9128C9.28779 9.34092 7.19515 7.49203 5.34162 5.40212C4.88958 6.60178 4.65469 7.88933 4.65469 9.19766C4.65469 12.7352 6.37316 16.0155 9.25163 17.9724C9.67321 18.259 9.8583 18.7959 9.70561 19.289C9.55269 19.7822 9.09883 20.1117 8.59255 20.0994C7.26348 20.0647 5.96432 19.8113 4.71085 19.3434C5.40392 23.6029 8.61791 27.1062 12.8588 27.9839C13.3765 28.091 13.7538 28.5482 13.7693 29.0875C13.7849 29.6268 13.4347 30.1058 12.924 30.244C11.8551 30.5332 10.7412 30.6798 9.6134 30.6798C9.48777 30.6798 9.36283 30.6781 9.23879 30.6746C10.9782 34.0184 14.3831 36.2108 18.1888 36.292C18.6695 36.3022 19.0919 36.6202 19.2438 37.086C19.3957 37.5519 19.2441 38.0648 18.8654 38.3673C15.0625 41.404 10.5777 43.1745 5.79878 43.5433C9.85841 45.4207 14.2721 46.3987 18.7767 46.3987C38.4886 46.3987 50.2702 30.0549 50.2774 14.2494L50.2428 12.7458C50.234 12.3627 50.411 11.9997 50.7157 11.7759C51.8218 10.9636 52.8441 10.0561 53.7759 9.06043C52.7515 9.32873 51.7113 9.52726 50.6612 9.65451C50.1285 9.71906 49.6243 9.39468 49.4512 8.87641C49.278 8.35814 49.4831 7.78669 49.9434 7.50539C51.1652 6.75852 52.2139 5.7683 53.035 4.6044C51.5702 5.22019 50.0503 5.68575 48.4893 5.99551C48.1053 6.0719 47.7101 5.94106 47.4428 5.64965C45.5023 3.53489 42.7563 2.322 39.9088 2.322C34.2109 2.322 29.5752 7.05573 29.5752 12.8744C29.5752 13.6741 29.6644 14.4867 29.8404 15.2893C29.9181 15.6433 29.8291 16.0139 29.6002 16.2912C29.3712 16.5686 29.0297 16.7208 28.6737 16.7025C26.2449 16.5775 23.8321 16.1864 21.5023 15.5401C20.8963 15.372 20.5385 14.7341 20.7031 14.1153C20.8678 13.4965 21.4925 13.1311 22.0984 13.2992C23.8188 13.7765 25.5882 14.1046 27.3755 14.2784C27.3262 13.8094 27.3013 13.3403 27.3013 12.8744C27.3013 5.77538 32.957 0 39.9088 0C43.165 0 46.3134 1.30113 48.6459 3.59015C50.8789 3.08094 53.0134 2.21588 54.9992 1.01436C55.4058 0.768349 55.9196 0.80492 56.2889 1.10655C56.6582 1.40817 56.8061 1.91181 56.6602 2.37122C56.1909 3.84987 55.4711 5.21671 54.5451 6.41498C55.2595 6.17744 55.9639 5.90158 56.6559 5.58823C57.1183 5.37879 57.6604 5.5065 57.9863 5.90147C58.3122 6.29644 58.3434 6.86382 58.0629 7.2935C56.5548 9.60354 54.6954 11.6198 52.5299 13.294L52.5509 14.2082C52.5511 14.2172 52.5512 14.2264 52.5512 14.2355C52.5512 22.6021 49.3833 31.0702 43.8598 37.4683C40.8608 40.9421 37.2926 43.6721 33.2545 45.5822C28.8524 47.665 23.9813 48.7208 18.7768 48.7208ZM16.7925 13.729C16.6341 13.729 16.4732 13.695 16.3197 13.6233L16.2671 13.5985C15.6969 13.3299 15.448 12.64 15.7112 12.0579C15.9743 11.4756 16.6497 11.2214 17.2199 11.4903L17.267 11.5122C17.8378 11.7794 18.0885 12.4684 17.827 13.0514C17.6357 13.4776 17.2234 13.729 16.7925 13.729Z" fill="black"/>
<path d="M42.2823 30.3524C42.0835 30.3524 41.8823 30.2992 41.6996 30.1872C41.1612 29.8573 40.9857 29.1459 41.3088 28.596L41.3108 28.5926C41.6338 28.0428 42.3323 27.8646 42.8707 28.1944C43.4091 28.5243 43.5837 29.2375 43.2607 29.7873C43.0471 30.1505 42.6693 30.3524 42.2823 30.3524Z" fill="black"/>
<path d="M32.6233 40.0617C32.2285 40.0617 31.8451 39.8515 31.6352 39.4765C31.3237 38.9198 31.513 38.2107 32.0581 37.8925C34.7084 36.3457 37.0614 34.3111 39.0516 31.8454C39.451 31.3506 40.1676 31.2802 40.652 31.688C41.1366 32.0958 41.2056 32.8275 40.8062 33.3223C38.6401 36.0058 36.0765 38.2217 33.1864 39.9085C33.0085 40.0123 32.8145 40.0617 32.6233 40.0617Z" fill="black"/>
</svg>
